<mxfile host="app.diagrams.net" modified="2023-07-31T22:33:48.319Z" agent="Mozilla/5.0 (Windows NT 10.0; Win64; x64) AppleWebKit/537.36 (KHTML, like Gecko) Chrome/115.0.0.0 Safari/537.36" etag="iFJ_PKGQgmxRAimVi2jX" version="21.6.6" type="github">
  <diagram name="페이지-1" id="oKI0b73-8t0VESjbhJGr">
    <mxGraphModel dx="792" dy="1100" grid="1" gridSize="10" guides="1" tooltips="1" connect="1" arrows="1" fold="1" page="1" pageScale="1" pageWidth="827" pageHeight="1169" math="0" shadow="0">
      <root>
        <mxCell id="0" />
        <mxCell id="1" parent="0" />
        <mxCell id="w_AG-GsKaxv38xsEXlLT-1" value="이용자" style="shape=umlActor;verticalLabelPosition=bottom;verticalAlign=top;html=1;" vertex="1" parent="1">
          <mxGeometry x="30" y="100" width="30" height="60" as="geometry" />
        </mxCell>
        <mxCell id="w_AG-GsKaxv38xsEXlLT-4" value="게시판 서비스" style="shape=umlFrame;whiteSpace=wrap;html=1;pointerEvents=0;width=100;height=20;" vertex="1" parent="1">
          <mxGeometry x="110" y="50" width="510" height="650" as="geometry" />
        </mxCell>
        <mxCell id="w_AG-GsKaxv38xsEXlLT-17" style="rounded=0;orthogonalLoop=1;jettySize=auto;html=1;entryX=1;entryY=0.3333333333333333;entryDx=0;entryDy=0;entryPerimeter=0;endArrow=none;endFill=0;exitX=0;exitY=0.5;exitDx=0;exitDy=0;" edge="1" parent="1" source="w_AG-GsKaxv38xsEXlLT-5" target="w_AG-GsKaxv38xsEXlLT-1">
          <mxGeometry relative="1" as="geometry" />
        </mxCell>
        <mxCell id="w_AG-GsKaxv38xsEXlLT-33" style="rounded=0;orthogonalLoop=1;jettySize=auto;html=1;entryX=0.5;entryY=1;entryDx=0;entryDy=0;endArrow=none;endFill=0;" edge="1" parent="1" source="w_AG-GsKaxv38xsEXlLT-5" target="w_AG-GsKaxv38xsEXlLT-9">
          <mxGeometry relative="1" as="geometry" />
        </mxCell>
        <mxCell id="w_AG-GsKaxv38xsEXlLT-5" value="회원 가입" style="rounded=1;whiteSpace=wrap;html=1;arcSize=40;fontColor=#000000;fillColor=#ffffc0;strokeColor=#ff0000;" vertex="1" parent="1">
          <mxGeometry x="140" y="210" width="120" height="40" as="geometry" />
        </mxCell>
        <mxCell id="w_AG-GsKaxv38xsEXlLT-24" style="rounded=0;orthogonalLoop=1;jettySize=auto;html=1;entryX=1;entryY=0.3333333333333333;entryDx=0;entryDy=0;entryPerimeter=0;endArrow=none;endFill=0;exitX=0;exitY=0.5;exitDx=0;exitDy=0;" edge="1" parent="1" source="w_AG-GsKaxv38xsEXlLT-7" target="w_AG-GsKaxv38xsEXlLT-1">
          <mxGeometry relative="1" as="geometry" />
        </mxCell>
        <mxCell id="w_AG-GsKaxv38xsEXlLT-31" style="rounded=0;orthogonalLoop=1;jettySize=auto;html=1;entryX=0.5;entryY=1;entryDx=0;entryDy=0;endArrow=classic;endFill=1;dashed=1;exitX=0.925;exitY=-0.1;exitDx=0;exitDy=0;exitPerimeter=0;" edge="1" parent="1" source="w_AG-GsKaxv38xsEXlLT-7" target="w_AG-GsKaxv38xsEXlLT-9">
          <mxGeometry relative="1" as="geometry" />
        </mxCell>
        <mxCell id="w_AG-GsKaxv38xsEXlLT-7" value="게시판 보기" style="rounded=1;whiteSpace=wrap;html=1;arcSize=40;fontColor=#000000;fillColor=#ffffc0;strokeColor=#ff0000;" vertex="1" parent="1">
          <mxGeometry x="140" y="360" width="120" height="40" as="geometry" />
        </mxCell>
        <mxCell id="w_AG-GsKaxv38xsEXlLT-25" style="rounded=0;orthogonalLoop=1;jettySize=auto;html=1;entryX=1;entryY=0.3333333333333333;entryDx=0;entryDy=0;entryPerimeter=0;endArrow=none;endFill=0;exitX=0;exitY=0.5;exitDx=0;exitDy=0;" edge="1" parent="1" source="w_AG-GsKaxv38xsEXlLT-8" target="w_AG-GsKaxv38xsEXlLT-1">
          <mxGeometry relative="1" as="geometry" />
        </mxCell>
        <mxCell id="w_AG-GsKaxv38xsEXlLT-32" style="rounded=0;orthogonalLoop=1;jettySize=auto;html=1;entryX=0.5;entryY=1;entryDx=0;entryDy=0;endArrow=classic;endFill=1;dashed=1;exitX=0.925;exitY=0;exitDx=0;exitDy=0;exitPerimeter=0;" edge="1" parent="1" source="w_AG-GsKaxv38xsEXlLT-8" target="w_AG-GsKaxv38xsEXlLT-9">
          <mxGeometry relative="1" as="geometry" />
        </mxCell>
        <mxCell id="w_AG-GsKaxv38xsEXlLT-8" value="게시글 보기" style="rounded=1;whiteSpace=wrap;html=1;arcSize=40;fontColor=#000000;fillColor=#ffffc0;strokeColor=#ff0000;" vertex="1" parent="1">
          <mxGeometry x="140" y="530" width="120" height="40" as="geometry" />
        </mxCell>
        <mxCell id="w_AG-GsKaxv38xsEXlLT-19" style="rounded=0;orthogonalLoop=1;jettySize=auto;html=1;entryX=1;entryY=0.3333333333333333;entryDx=0;entryDy=0;entryPerimeter=0;endArrow=none;endFill=0;exitX=0;exitY=0.5;exitDx=0;exitDy=0;" edge="1" parent="1" source="w_AG-GsKaxv38xsEXlLT-9" target="w_AG-GsKaxv38xsEXlLT-1">
          <mxGeometry relative="1" as="geometry" />
        </mxCell>
        <mxCell id="w_AG-GsKaxv38xsEXlLT-26" style="rounded=0;orthogonalLoop=1;jettySize=auto;html=1;entryX=0;entryY=0.5;entryDx=0;entryDy=0;endArrow=classic;endFill=1;dashed=1;" edge="1" parent="1" source="w_AG-GsKaxv38xsEXlLT-9" target="w_AG-GsKaxv38xsEXlLT-10">
          <mxGeometry relative="1" as="geometry" />
        </mxCell>
        <mxCell id="w_AG-GsKaxv38xsEXlLT-29" value="&amp;lt;&amp;lt;include&amp;gt;&amp;gt;" style="edgeLabel;html=1;align=center;verticalAlign=middle;resizable=0;points=[];" vertex="1" connectable="0" parent="w_AG-GsKaxv38xsEXlLT-26">
          <mxGeometry x="0.16" y="2" relative="1" as="geometry">
            <mxPoint x="-8" y="2" as="offset" />
          </mxGeometry>
        </mxCell>
        <mxCell id="w_AG-GsKaxv38xsEXlLT-9" value="회원 로그인" style="rounded=1;whiteSpace=wrap;html=1;arcSize=40;fontColor=#000000;fillColor=#ffffc0;strokeColor=#ff0000;" vertex="1" parent="1">
          <mxGeometry x="240" y="80" width="120" height="40" as="geometry" />
        </mxCell>
        <mxCell id="w_AG-GsKaxv38xsEXlLT-10" value="인증" style="rounded=1;whiteSpace=wrap;html=1;arcSize=40;fontColor=#000000;fillColor=#ffffc0;strokeColor=#ff0000;" vertex="1" parent="1">
          <mxGeometry x="460" y="80" width="120" height="40" as="geometry" />
        </mxCell>
        <mxCell id="w_AG-GsKaxv38xsEXlLT-28" style="rounded=0;orthogonalLoop=1;jettySize=auto;html=1;entryX=1;entryY=0.5;entryDx=0;entryDy=0;endArrow=classic;endFill=1;dashed=1;exitX=0;exitY=0.5;exitDx=0;exitDy=0;" edge="1" parent="1" source="w_AG-GsKaxv38xsEXlLT-12" target="w_AG-GsKaxv38xsEXlLT-9">
          <mxGeometry relative="1" as="geometry">
            <Array as="points" />
          </mxGeometry>
        </mxCell>
        <mxCell id="w_AG-GsKaxv38xsEXlLT-30" value="&amp;lt;&amp;lt;extend&amp;gt;&amp;gt;" style="edgeLabel;html=1;align=center;verticalAlign=middle;resizable=0;points=[];" vertex="1" connectable="0" parent="w_AG-GsKaxv38xsEXlLT-28">
          <mxGeometry x="0.095" relative="1" as="geometry">
            <mxPoint x="-1" as="offset" />
          </mxGeometry>
        </mxCell>
        <mxCell id="w_AG-GsKaxv38xsEXlLT-12" value="로그인 실패" style="rounded=1;whiteSpace=wrap;html=1;arcSize=40;fontColor=#000000;fillColor=#ffffc0;strokeColor=#ff0000;" vertex="1" parent="1">
          <mxGeometry x="460" y="160" width="120" height="40" as="geometry" />
        </mxCell>
        <mxCell id="w_AG-GsKaxv38xsEXlLT-35" style="rounded=0;orthogonalLoop=1;jettySize=auto;html=1;entryX=1;entryY=0.5;entryDx=0;entryDy=0;dashed=1;" edge="1" parent="1" source="w_AG-GsKaxv38xsEXlLT-13" target="w_AG-GsKaxv38xsEXlLT-7">
          <mxGeometry relative="1" as="geometry" />
        </mxCell>
        <mxCell id="w_AG-GsKaxv38xsEXlLT-13" value="게시판 정렬하기" style="rounded=1;whiteSpace=wrap;html=1;arcSize=40;fontColor=#000000;fillColor=#ffffc0;strokeColor=#ff0000;" vertex="1" parent="1">
          <mxGeometry x="345" y="310" width="120" height="40" as="geometry" />
        </mxCell>
        <mxCell id="w_AG-GsKaxv38xsEXlLT-36" style="rounded=0;orthogonalLoop=1;jettySize=auto;html=1;entryX=1;entryY=0.5;entryDx=0;entryDy=0;dashed=1;" edge="1" parent="1" source="w_AG-GsKaxv38xsEXlLT-14" target="w_AG-GsKaxv38xsEXlLT-7">
          <mxGeometry relative="1" as="geometry" />
        </mxCell>
        <mxCell id="w_AG-GsKaxv38xsEXlLT-14" value="게시판 검색" style="rounded=1;whiteSpace=wrap;html=1;arcSize=40;fontColor=#000000;fillColor=#ffffc0;strokeColor=#ff0000;" vertex="1" parent="1">
          <mxGeometry x="345" y="410" width="120" height="40" as="geometry" />
        </mxCell>
        <mxCell id="w_AG-GsKaxv38xsEXlLT-37" style="rounded=0;orthogonalLoop=1;jettySize=auto;html=1;entryX=1;entryY=0.5;entryDx=0;entryDy=0;dashed=1;" edge="1" parent="1" source="w_AG-GsKaxv38xsEXlLT-15" target="w_AG-GsKaxv38xsEXlLT-8">
          <mxGeometry relative="1" as="geometry" />
        </mxCell>
        <mxCell id="w_AG-GsKaxv38xsEXlLT-15" value="게시글 쓰기, 수정, 삭제" style="rounded=1;whiteSpace=wrap;html=1;arcSize=40;fontColor=#000000;fillColor=#ffffc0;strokeColor=#ff0000;" vertex="1" parent="1">
          <mxGeometry x="340" y="500" width="130" height="40" as="geometry" />
        </mxCell>
        <mxCell id="w_AG-GsKaxv38xsEXlLT-38" style="rounded=0;orthogonalLoop=1;jettySize=auto;html=1;entryX=1;entryY=0.5;entryDx=0;entryDy=0;dashed=1;" edge="1" parent="1" source="w_AG-GsKaxv38xsEXlLT-16" target="w_AG-GsKaxv38xsEXlLT-8">
          <mxGeometry relative="1" as="geometry" />
        </mxCell>
        <mxCell id="w_AG-GsKaxv38xsEXlLT-16" value="댓글 보기, 쓰기,&lt;br&gt;&amp;nbsp; &amp;nbsp; &amp;nbsp; &amp;nbsp;수정, 삭제" style="rounded=1;whiteSpace=wrap;html=1;arcSize=40;fontColor=#000000;fillColor=#ffffc0;strokeColor=#ff0000;" vertex="1" parent="1">
          <mxGeometry x="340" y="570" width="130" height="40" as="geometry" />
        </mxCell>
      </root>
    </mxGraphModel>
  </diagram>
</mxfile>
